HIERARCHY
ROOT Hips
{
  OFFSET -11.513 5.898 -305.418
  CHANNELS 6 Xposition Yposition Zposition Zrotation Xrotation Yrotation
  JOINT LeftUpLeg
  {
    OFFSET 6.307 -6.238 1.258
    CHANNELS 6 Xposition Yposition Zposition Zrotation Xrotation Yrotation
    JOINT LeftLeg
    {
      OFFSET -0.000 -46.189 0.000
      CHANNELS 6 Xposition Yposition Zposition Zrotation Xrotation Yrotation
      JOINT LeftFoot
      {
        OFFSET -0.000 -37.557 -0.000
        CHANNELS 6 Xposition Yposition Zposition Zrotation Xrotation Yrotation
        End Site
        {
          OFFSET 0.000 -8.044 4.644
        }
      }
    }
  }
  JOINT RightUpLeg
  {
    OFFSET -6.619 -6.441 2.199
    CHANNELS 6 Xposition Yposition Zposition Zrotation Xrotation Yrotation
    JOINT RightLeg
    {
      OFFSET -0.000 -45.100 0.000
      CHANNELS 6 Xposition Yposition Zposition Zrotation Xrotation Yrotation
      JOINT RightFoot
      {
        OFFSET -0.000 -37.411 -0.000
        CHANNELS 6 Xposition Yposition Zposition Zrotation Xrotation Yrotation
        End Site
        {
          OFFSET 0.000 -8.124 4.690
        }
      }
    }
  }
  JOINT Spine
  {
    OFFSET 0.000 5.667 -5.667
    CHANNELS 6 Xposition Yposition Zposition Zrotation Xrotation Yrotation
    JOINT LeftShoulder
    {
      OFFSET -0.000 35.296 0.000
      CHANNELS 6 Xposition Yposition Zposition Zrotation Xrotation Yrotation
      JOINT LeftArm
      {
        OFFSET 13.972 0.000 -0.000
        CHANNELS 6 Xposition Yposition Zposition Zrotation Xrotation Yrotation
        JOINT LeftForeArm
        {
          OFFSET 26.620 0.000 0.000
          CHANNELS 6 Xposition Yposition Zposition Zrotation Xrotation Yrotation
          JOINT LeftHand
          {
            OFFSET 25.614 0.000 -0.000
            CHANNELS 6 Xposition Yposition Zposition Zrotation Xrotation Yrotation
            JOINT LeftHandThumb1
            {
            OFFSET 4.970 -0.620 3.390
            CHANNELS 6 Xposition Yposition Zposition Zrotation Xrotation Yrotation
              JOINT LeftHandThumb2
              {
              OFFSET 2.150 -0.000 0.000
              CHANNELS 6 Xposition Yposition Zposition Zrotation Xrotation Yrotation
                JOINT LeftHandThumb3
                {
                OFFSET 2.200 -0.000 0.000
                CHANNELS 6 Xposition Yposition Zposition Zrotation Xrotation Yrotation
                  JOINT LeftHandThumb4
                  {
                  OFFSET 1.700 -0.000 0.000
                  CHANNELS 6 Xposition Yposition Zposition Zrotation Xrotation Yrotation
                  }
                }
              }
            }
            JOINT LeftHandIndex1
            {
            OFFSET 8.730 0.680 2.070
            CHANNELS 6 Xposition Yposition Zposition Zrotation Xrotation Yrotation
              JOINT LeftHandIndex2
              {
              OFFSET 2.670 -0.000 0.000
              CHANNELS 6 Xposition Yposition Zposition Zrotation Xrotation Yrotation
                JOINT LeftHandIndex3
                {
                OFFSET 2.130 -0.000 0.000
                CHANNELS 6 Xposition Yposition Zposition Zrotation Xrotation Yrotation
                  JOINT LeftHandIndex4
                  {
                  OFFSET 1.800 -0.000 0.000
                  CHANNELS 6 Xposition Yposition Zposition Zrotation Xrotation Yrotation
                  }
                }
              }
            }
            JOINT LeftHandMiddle1
            {
            OFFSET 9.220 0.670 0.550
            CHANNELS 6 Xposition Yposition Zposition Zrotation Xrotation Yrotation
              JOINT LeftHandMiddle2
              {
              OFFSET 2.660 -0.000 0.000
              CHANNELS 6 Xposition Yposition Zposition Zrotation Xrotation Yrotation
                JOINT LeftHandMiddle3
                {
                OFFSET 2.280 -0.000 0.000
                CHANNELS 6 Xposition Yposition Zposition Zrotation Xrotation Yrotation
                  JOINT LeftHandMiddle4
                  {
                  OFFSET 1.500 -0.000 0.000
                  CHANNELS 6 Xposition Yposition Zposition Zrotation Xrotation Yrotation
                  }
                }
              }
            }
            JOINT LeftHandRing1
            {
            OFFSET 9.250 0.670 -1.130
            CHANNELS 6 Xposition Yposition Zposition Zrotation Xrotation Yrotation
              JOINT LeftHandRing2
              {
              OFFSET 2.470 -0.000 0.000
              CHANNELS 6 Xposition Yposition Zposition Zrotation Xrotation Yrotation
                JOINT LeftHandRing3
                {
                OFFSET 2.210 -0.000 0.000
                CHANNELS 6 Xposition Yposition Zposition Zrotation Xrotation Yrotation
                  JOINT LeftHandRing4
                  {
                  OFFSET 1.800 -0.000 0.000
                  CHANNELS 6 Xposition Yposition Zposition Zrotation Xrotation Yrotation
                  }
                }
              }
            }
            JOINT LeftHandPinky1
            {
            OFFSET 9.350 0.660 -2.720
            CHANNELS 6 Xposition Yposition Zposition Zrotation Xrotation Yrotation
              JOINT LeftHandPinky2
              {
              OFFSET 1.630 -0.000 0.000
              CHANNELS 6 Xposition Yposition Zposition Zrotation Xrotation Yrotation
                JOINT LeftHandPinky3
                {
                OFFSET 1.710 -0.000 0.000
                CHANNELS 6 Xposition Yposition Zposition Zrotation Xrotation Yrotation
                  JOINT LeftHandPinky4
                  {
                  OFFSET 1.800 -0.000 0.000
                  CHANNELS 6 Xposition Yposition Zposition Zrotation Xrotation Yrotation
                  }
                }
              }
            }
          }
        }
      }
    }
    JOINT RightShoulder
    {
      OFFSET -0.000 35.296 0.000
      CHANNELS 6 Xposition Yposition Zposition Zrotation Xrotation Yrotation
      JOINT RightArm
      {
        OFFSET -20.751 0.000 -0.000
        CHANNELS 6 Xposition Yposition Zposition Zrotation Xrotation Yrotation
        JOINT RightForeArm
        {
          OFFSET -26.395 0.000 0.000
          CHANNELS 6 Xposition Yposition Zposition Zrotation Xrotation Yrotation
          JOINT RightHand
          {
            OFFSET -26.130 0.000 -0.000
            CHANNELS 6 Xposition Yposition Zposition Zrotation Xrotation Yrotation
            JOINT RightHandThumb1
            {
            OFFSET -4.970 -0.620 3.390
            CHANNELS 6 Xposition Yposition Zposition Zrotation Xrotation Yrotation
              JOINT RightHandThumb2
              {
              OFFSET -2.150 0.000 0.000
              CHANNELS 6 Xposition Yposition Zposition Zrotation Xrotation Yrotation
                JOINT RightHandThumb3
                {
                OFFSET -2.200 0.000 0.000
                CHANNELS 6 Xposition Yposition Zposition Zrotation Xrotation Yrotation
                  JOINT RightHandThumb4
                  {
                  OFFSET -1.700 0.000 0.000
                  CHANNELS 6 Xposition Yposition Zposition Zrotation Xrotation Yrotation
                  }
                }
              }
            }
            JOINT RightHandIndex1
            {
            OFFSET -8.730 0.680 2.070
            CHANNELS 6 Xposition Yposition Zposition Zrotation Xrotation Yrotation
              JOINT RightHandIndex2
              {
              OFFSET -2.670 0.000 0.000
              CHANNELS 6 Xposition Yposition Zposition Zrotation Xrotation Yrotation
                JOINT RightHandIndex3
                {
                OFFSET -2.130 0.000 0.000
                CHANNELS 6 Xposition Yposition Zposition Zrotation Xrotation Yrotation
                  JOINT RightHandIndex4
                  {
                  OFFSET -1.800 0.000 0.000
                  CHANNELS 6 Xposition Yposition Zposition Zrotation Xrotation Yrotation
                  }
                }
              }
            }
            JOINT RightHandMiddle1
            {
            OFFSET -9.220 0.670 0.550
            CHANNELS 6 Xposition Yposition Zposition Zrotation Xrotation Yrotation
              JOINT RightHandMiddle2
              {
              OFFSET -2.660 0.000 0.000
              CHANNELS 6 Xposition Yposition Zposition Zrotation Xrotation Yrotation
                JOINT RightHandMiddle3
                {
                OFFSET -2.280 0.000 0.000
                CHANNELS 6 Xposition Yposition Zposition Zrotation Xrotation Yrotation
                  JOINT RightHandMiddle4
                  {
                  OFFSET -1.500 0.000 0.000
                  CHANNELS 6 Xposition Yposition Zposition Zrotation Xrotation Yrotation
                  }
                }
              }
            }
            JOINT RightHandRing1
            {
            OFFSET -9.250 0.670 -1.130
            CHANNELS 6 Xposition Yposition Zposition Zrotation Xrotation Yrotation
              JOINT RightHandRing2
              {
              OFFSET -2.470 0.000 0.000
              CHANNELS 6 Xposition Yposition Zposition Zrotation Xrotation Yrotation
                JOINT RightHandRing3
                {
                OFFSET -2.210 0.000 0.000
                CHANNELS 6 Xposition Yposition Zposition Zrotation Xrotation Yrotation
                  JOINT RightHandRing4
                  {
                  OFFSET -1.800 0.000 0.000
                  CHANNELS 6 Xposition Yposition Zposition Zrotation Xrotation Yrotation
                  }
                }
              }
            }
            JOINT RightHandPinky1
            {
            OFFSET -9.350 0.660 -2.720
            CHANNELS 6 Xposition Yposition Zposition Zrotation Xrotation Yrotation
              JOINT RightHandPinky2
              {
              OFFSET -1.630 0.000 0.000
              CHANNELS 6 Xposition Yposition Zposition Zrotation Xrotation Yrotation
                JOINT RightHandPinky3
                {
                OFFSET -1.710 0.000 0.000
                CHANNELS 6 Xposition Yposition Zposition Zrotation Xrotation Yrotation
                  JOINT RightHandPinky4
                  {
                  OFFSET -1.800 0.000 0.000
                  CHANNELS 6 Xposition Yposition Zposition Zrotation Xrotation Yrotation
                  }
                }
              }
            }
          }
        }
      }
    }
    JOINT Neck
    {
      OFFSET -0.000 35.296 0.000
      CHANNELS 6 Xposition Yposition Zposition Zrotation Xrotation Yrotation
      JOINT Head
      {
        OFFSET -0.000 18.935 -0.000
        CHANNELS 6 Xposition Yposition Zposition Zrotation Xrotation Yrotation
        End Site
        {
          OFFSET -0.000 0.076 -0.000
        }
      }
    }
  }
}
MOTION
Frames:	5
Frame Time:	0.0333333
-14.7323 2.02366 -303.481 -1.31955 5.62788 -7.23686 6.08722 -5.95717 0.682354 0.802458 -7.18173 11.3413 -8.9407e-06 -43.8 2.38419e-05 2.9995 1.32877 -0.0696201 5.96046e-06 -36.4163 0 -18.4109 -0.702209 -10.3626 -6.11432 -6.01001 3.13399 2.40547 -6.89865 11.5377 6.03031e-06 -42.1615 4.76837e-05 4.93064 2.37334 -0.204686 -1.11759e-06 -39.3249 -4.76837e-05 -4.51306 -11.8994 -3.33714 0 6.17857 -6.17864 -1.66437 -8.27067 2.7798 -1.19209e-05 35.2962 7.15256e-05 -40.5686 1.32335e-05 -12.1262 12.7885 1.49012e-06 -2.38419e-05 -31.3463 8.47187 16.4839 27.2012 5.96046e-06 0 3.00268e-06 0 -31.4592 24.1083 -1.19209e-05 -9.53674e-05 -5.93828 0.00416554 10.9666 0.0062 0.0497 0.0339 -1.61149e-43 0 0 0 0.0215 0 0 -1.61149e-43 0 0 0.022 0 0 -1.61149e-43 0 0 0.017 0 0 0 0 -0.0068 0.0873 0.0207 -1.61149e-43 0 0 0 0.0267 0 -3.20897e-43 0 0 0 0.0213 0 -4.00771e-43 0 0 0 0.018 0 0 0 0 -0.0067 0.0922 0.0055 -1.61149e-43 0 0 0 0.0266 0 -3.20897e-43 0 0 0 0.0228 0 -4.00771e-43 0 0 0 0.015 0 0 0 0 -0.0067 0.0925 -0.0113 -1.61149e-43 0 0 0 0.0247 0 -3.20897e-43 0 0 0 0.0221 0 -4.00771e-43 0 0 0 0.018 0 0 0 0 -0.0066 0.0935 -0.0272 -1.61149e-43 0 0 0 0.0163 0 -3.20897e-43 0 0 0 0.0171 0 -4.00771e-43 0 0 0 0.018 0 0 0 0 -1.19209e-05 35.2962 7.15256e-05 30.9458 -2.98821e-06 7.2379 -21.3226 0 2.38419e-05 47.6627 3.21843 -4.32362 -26.0766 0 -9.53674e-05 -3.88008e-06 2.56132e-06 29.2418 -27.9437 2.98023e-06 4.76837e-05 4.02466 0.000417495 -6.58723 -0.0062 0.0497 0.0339 1.61149e-43 0 0 0 0.0215 0 0 -1.61149e-43 0 0 0.022 0 0 -1.61149e-43 0 0 0.017 0 0 0 0 0.0068 0.0873 0.0207 1.61149e-43 0 0 0 0.0267 0 3.20897e-43 0 0 0 0.0213 0 4.00771e-43 0 0 0 0.018 0 0 0 0 0.0067 0.0922 0.0055 1.61149e-43 0 0 0 0.0266 0 3.20897e-43 0 0 0 0.0228 0 4.00771e-43 0 0 0 0.015 0 0 0 0 0.0067 0.0925 -0.0113 1.61149e-43 0 0 0 0.0247 0 3.20897e-43 0 0 0 0.0221 0 4.00771e-43 0 0 0 0.018 0 0 0 0 0.0066 0.0935 -0.0272 1.61149e-43 0 0 0 0.0163 0 3.20897e-43 0 0 0 0.0171 0 4.00771e-43 0 0 0 0.018 0 0 0 0 -1.19209e-05 35.2962 7.15256e-05 16.2865 5.73695 -1.67286 0 21.3938 -9.53674e-05 9.69833e-06 -9.17807e-06 -4.26887e-07 
-14.5759 1.99504 -303.204 -1.34792 5.04061 -7.47566 6.14659 -5.9945 0.727558 -0.578667 -6.03725 10.6345 -2.23517e-06 -45.8113 0 5.7234 0.345643 -0.0346436 -4.84288e-06 -34.593 4.76837e-05 -21.1755 0.965099 -11.7763 -6.16418 -6.13064 3.07915 2.43961 -6.30915 10.9466 1.49012e-06 -42.115 4.76837e-05 4.81464 2.76302 -0.232641 2.98023e-06 -39.5624 -9.53674e-05 -5.51068 -9.51964 -3.87902 1.78814e-05 6.20708 -6.20713 -1.62749 -7.60183 2.76644 -1.19209e-05 35.2962 2.38419e-05 -40.4357 1.26999e-05 -11.461 12.6755 0 0 -31.1749 7.95579 16.1603 27.2471 5.96046e-06 -0.000119209 1.0087e-05 3.4151e-06 -31.4017 23.7533 1.78814e-05 2.38419e-05 -6.13323 -0.000729202 10.6945 0.0062 0.0497 0.0339 -1.61149e-43 0 0 0 0.0215 0 0 -1.61149e-43 0 0 0.022 0 0 -1.61149e-43 0 0 0.017 0 0 0 0 -0.0068 0.0873 0.0207 -1.61149e-43 0 0 0 0.0267 0 -3.20897e-43 0 0 0 0.0213 0 -4.00771e-43 0 0 0 0.018 0 0 0 0 -0.0067 0.0922 0.0055 -1.61149e-43 0 0 0 0.0266 0 -3.20897e-43 0 0 0 0.0228 0 -4.00771e-43 0 0 0 0.015 0 0 0 0 -0.0067 0.0925 -0.0113 -1.61149e-43 0 0 0 0.0247 0 -3.20897e-43 0 0 0 0.0221 0 -4.00771e-43 0 0 0 0.018 0 0 0 0 -0.0066 0.0935 -0.0272 -1.61149e-43 0 0 0 0.0163 0 -3.20897e-43 0 0 0 0.0171 0 -4.00771e-43 0 0 0 0.018 0 0 0 0 -1.19209e-05 35.2962 2.38419e-05 30.3616 -4.26887e-07 6.76692 -21.3751 0 4.76837e-05 48.568 4.9174 -4.3654 -26.2944 7.45058e-07 2.38419e-05 2.00411e-06 2.56132e-06 28.7136 -28.0523 -3.72529e-06 -2.38419e-05 3.241 0.00575116 -5.57871 -0.0062 0.0497 0.0339 1.61149e-43 0 0 0 0.0215 0 0 -1.61149e-43 0 0 0.022 0 0 -1.61149e-43 0 0 0.017 0 0 0 0 0.0068 0.0873 0.0207 1.61149e-43 0 0 0 0.0267 0 3.20897e-43 0 0 0 0.0213 0 4.00771e-43 0 0 0 0.018 0 0 0 0 0.0067 0.0922 0.0055 1.61149e-43 0 0 0 0.0266 0 3.20897e-43 0 0 0 0.0228 0 4.00771e-43 0 0 0 0.015 0 0 0 0 0.0067 0.0925 -0.0113 1.61149e-43 0 0 0 0.0247 0 3.20897e-43 0 0 0 0.0221 0 4.00771e-43 0 0 0 0.018 0 0 0 0 0.0066 0.0935 -0.0272 1.61149e-43 0 0 0 0.0163 0 3.20897e-43 0 0 0 0.0171 0 4.00771e-43 0 0 0 0.018 0 0 0 0 -1.19209e-05 35.2962 2.38419e-05 16.485 4.80364 -1.41958 -2.98023e-06 21.4245 9.53674e-05 9.47155e-06 -1.0352e-05 -4.26887e-07 
-14.5759 1.99504 -303.204 -1.34792 5.04061 -7.47566 6.14659 -5.9945 0.727558 -0.578667 -6.03725 10.6345 -2.23517e-06 -45.8113 0 5.7234 0.345643 -0.0346436 -4.84288e-06 -34.593 4.76837e-05 -21.1755 0.965099 -11.7763 -6.16418 -6.13064 3.07915 2.43961 -6.30915 10.9466 1.49012e-06 -42.115 4.76837e-05 4.81464 2.76302 -0.232641 2.98023e-06 -39.5624 -9.53674e-05 -5.51068 -9.51964 -3.87902 1.78814e-05 6.20708 -6.20713 -1.62749 -7.60183 2.76644 -1.19209e-05 35.2962 2.38419e-05 -40.4357 1.26999e-05 -11.461 12.6755 0 0 -31.1749 7.95579 16.1603 27.2471 5.96046e-06 -0.000119209 1.0087e-05 3.4151e-06 -31.4017 23.7533 1.78814e-05 2.38419e-05 -6.13323 -0.000729202 10.6945 0.0062 0.0497 0.0339 -1.61149e-43 0 0 0 0.0215 0 0 -1.61149e-43 0 0 0.022 0 0 -1.61149e-43 0 0 0.017 0 0 0 0 -0.0068 0.0873 0.0207 -1.61149e-43 0 0 0 0.0267 0 -3.20897e-43 0 0 0 0.0213 0 -4.00771e-43 0 0 0 0.018 0 0 0 0 -0.0067 0.0922 0.0055 -1.61149e-43 0 0 0 0.0266 0 -3.20897e-43 0 0 0 0.0228 0 -4.00771e-43 0 0 0 0.015 0 0 0 0 -0.0067 0.0925 -0.0113 -1.61149e-43 0 0 0 0.0247 0 -3.20897e-43 0 0 0 0.0221 0 -4.00771e-43 0 0 0 0.018 0 0 0 0 -0.0066 0.0935 -0.0272 -1.61149e-43 0 0 0 0.0163 0 -3.20897e-43 0 0 0 0.0171 0 -4.00771e-43 0 0 0 0.018 0 0 0 0 -1.19209e-05 35.2962 2.38419e-05 30.3616 -4.26887e-07 6.76692 -21.3751 0 4.76837e-05 48.568 4.9174 -4.3654 -26.2944 7.45058e-07 2.38419e-05 2.00411e-06 2.56132e-06 28.7136 -28.0523 -3.72529e-06 -2.38419e-05 3.241 0.00575116 -5.57871 -0.0062 0.0497 0.0339 1.61149e-43 0 0 0 0.0215 0 0 -1.61149e-43 0 0 0.022 0 0 -1.61149e-43 0 0 0.017 0 0 0 0 0.0068 0.0873 0.0207 1.61149e-43 0 0 0 0.0267 0 3.20897e-43 0 0 0 0.0213 0 4.00771e-43 0 0 0 0.018 0 0 0 0 0.0067 0.0922 0.0055 1.61149e-43 0 0 0 0.0266 0 3.20897e-43 0 0 0 0.0228 0 4.00771e-43 0 0 0 0.015 0 0 0 0 0.0067 0.0925 -0.0113 1.61149e-43 0 0 0 0.0247 0 3.20897e-43 0 0 0 0.0221 0 4.00771e-43 0 0 0 0.018 0 0 0 0 0.0066 0.0935 -0.0272 1.61149e-43 0 0 0 0.0163 0 3.20897e-43 0 0 0 0.0171 0 4.00771e-43 0 0 0 0.018 0 0 0 0 -1.19209e-05 35.2962 2.38419e-05 16.485 4.80364 -1.41958 -2.98023e-06 21.4245 9.53674e-05 9.47155e-06 -1.0352e-05 -4.26887e-07 
-14.551 1.97781 -303.145 -1.35701 4.94223 -7.5449 6.15244 -5.9919 0.729871 -0.812549 -5.82562 10.5003 1.49012e-06 -46.212 4.76837e-05 6.2442 0.14933 -0.0163396 -6.33299e-06 -34.2286 -7.15256e-05 -21.6301 1.2211 -12.0218 -6.17311 -6.14919 3.05941 2.45002 -6.21224 10.8248 4.47035e-06 -42.0991 0 4.8426 2.85061 -0.241406 -1.49012e-06 -39.6838 0 -5.6446 -9.12972 -3.94864 0 6.21087 -6.21088 -1.63827 -7.47574 2.78144 0 35.2962 -4.76837e-05 -40.3909 1.25932e-05 -11.2914 12.6316 -4.47035e-06 -4.76837e-05 -31.1575 8.03102 16.0589 27.2576 2.98023e-05 2.38419e-05 3.89285e-08 1.70755e-06 -31.2974 23.8297 0 -2.38419e-05 -6.09842 -0.000455959 10.605 0.0062 0.0497 0.0339 -1.61149e-43 0 0 0 0.0215 0 0 -1.61149e-43 0 0 0.022 0 0 -1.61149e-43 0 0 0.017 0 0 0 0 -0.0068 0.0873 0.0207 -1.61149e-43 0 0 0 0.0267 0 -3.20897e-43 0 0 0 0.0213 0 -4.00771e-43 0 0 0 0.018 0 0 0 0 -0.0067 0.0922 0.0055 -1.61149e-43 0 0 0 0.0266 0 -3.20897e-43 0 0 0 0.0228 0 -4.00771e-43 0 0 0 0.015 0 0 0 0 -0.0067 0.0925 -0.0113 -1.61149e-43 0 0 0 0.0247 0 -3.20897e-43 0 0 0 0.0221 0 -4.00771e-43 0 0 0 0.018 0 0 0 0 -0.0066 0.0935 -0.0272 -1.61149e-43 0 0 0 0.0163 0 -3.20897e-43 0 0 0 0.0171 0 -4.00771e-43 0 0 0 0.018 0 0 0 0 0 35.2962 -4.76837e-05 30.256 -2.13443e-06 6.64016 -21.3889 1.19209e-05 -2.38419e-05 48.7576 5.37243 -4.32481 -26.3454 -6.70552e-06 0 1.25623e-06 1.70755e-06 28.642 -28.0383 -2.23517e-06 -7.15256e-05 3.25536 0.00356073 -5.34728 -0.0062 0.0497 0.0339 1.61149e-43 0 0 0 0.0215 0 0 -1.61149e-43 0 0 0.022 0 0 -1.61149e-43 0 0 0.017 0 0 0 0 0.0068 0.0873 0.0207 1.61149e-43 0 0 0 0.0267 0 3.20897e-43 0 0 0 0.0213 0 4.00771e-43 0 0 0 0.018 0 0 0 0 0.0067 0.0922 0.0055 1.61149e-43 0 0 0 0.0266 0 3.20897e-43 0 0 0 0.0228 0 4.00771e-43 0 0 0 0.015 0 0 0 0 0.0067 0.0925 -0.0113 1.61149e-43 0 0 0 0.0247 0 3.20897e-43 0 0 0 0.0221 0 4.00771e-43 0 0 0 0.018 0 0 0 0 0.0066 0.0935 -0.0272 1.61149e-43 0 0 0 0.0163 0 3.20897e-43 0 0 0 0.0171 0 4.00771e-43 0 0 0 0.018 0 0 0 0 0 35.2962 -4.76837e-05 16.5811 4.6093 -1.37069 -8.9407e-06 21.4387 2.38419e-05 1.11791e-05 -9.60495e-06 4.26887e-07 
-14.4776 1.9163 -302.91 -1.31466 4.58791 -7.90517 6.14837 -5.96112 0.737071 -1.571 -5.02692 9.99909 3.35276e-06 -47.5988 -4.76837e-05 7.81511 -0.497659 0.0683017 -1.49012e-06 -32.9221 0 -23.2183 1.9303 -12.987 -6.19586 -6.21324 2.97179 2.4231 -5.94005 10.3332 8.19564e-06 -41.9983 -7.15256e-05 4.79288 3.26929 -0.273973 1.49012e-06 -39.8732 2.38419e-05 -5.74806 -7.47354 -3.9369 5.96046e-06 6.22893 -6.22885 -1.60254 -7.05397 2.79431 -1.78814e-05 35.2962 0 -40.0344 1.25932e-05 -10.6197 12.5223 2.98023e-06 0 -31.4039 8.52535 15.6957 27.4147 -1.19209e-05 9.53674e-05 -2.98207e-08 -1.70755e-06 -30.9955 24.176 1.19209e-05 -2.38419e-05 -5.42254 0.0063885 9.85313 0.0062 0.0497 0.0339 -1.61149e-43 0 0 0 0.0215 0 0 -1.61149e-43 0 0 0.022 0 0 -1.61149e-43 0 0 0.017 0 0 0 0 -0.0068 0.0873 0.0207 -1.61149e-43 0 0 0 0.0267 0 -3.20897e-43 0 0 0 0.0213 0 -4.00771e-43 0 0 0 0.018 0 0 0 0 -0.0067 0.0922 0.0055 -1.61149e-43 0 0 0 0.0266 0 -3.20897e-43 0 0 0 0.0228 0 -4.00771e-43 0 0 0 0.015 0 0 0 0 -0.0067 0.0925 -0.0113 -1.61149e-43 0 0 0 0.0247 0 -3.20897e-43 0 0 0 0.0221 0 -4.00771e-43 0 0 0 0.018 0 0 0 0 -0.0066 0.0935 -0.0272 -1.61149e-43 0 0 0 0.0163 0 -3.20897e-43 0 0 0 0.0171 0 -4.00771e-43 0 0 0 0.018 0 0 0 0 -1.78814e-05 35.2962 0 29.8296 -2.98821e-06 6.2089 -21.3374 -1.19209e-05 0 50.1571 10.3548 -4.25433 -26.5944 -4.47035e-06 -2.38419e-05 4.88028e-07 0 28.9885 -27.9742 7.45058e-06 -4.76837e-05 -0.533674 0.0867821 -5.65855 -0.0062 0.0497 0.0339 1.61149e-43 0 0 0 0.0215 0 0 -1.61149e-43 0 0 0.022 0 0 -1.61149e-43 0 0 0.017 0 0 0 0 0.0068 0.0873 0.0207 1.61149e-43 0 0 0 0.0267 0 3.20897e-43 0 0 0 0.0213 0 4.00771e-43 0 0 0 0.018 0 0 0 0 0.0067 0.0922 0.0055 1.61149e-43 0 0 0 0.0266 0 3.20897e-43 0 0 0 0.0228 0 4.00771e-43 0 0 0 0.015 0 0 0 0 0.0067 0.0925 -0.0113 1.61149e-43 0 0 0 0.0247 0 3.20897e-43 0 0 0 0.0221 0 4.00771e-43 0 0 0 0.018 0 0 0 0 0.0066 0.0935 -0.0272 1.61149e-43 0 0 0 0.0163 0 3.20897e-43 0 0 0 0.0171 0 4.00771e-43 0 0 0 0.018 0 0 0 0 -1.78814e-05 35.2962 0 16.4497 3.99977 -1.17984 -5.96046e-06 21.4638 -4.76837e-05 7.68063e-06 -9.71167e-06 0 
